<?xml version="1.0" encoding="UTF-8"?>
<!DOCTYPE svg PUBLIC "-//W3C//DTD SVG 1.1//EN" "http://www.w3.org/Graphics/SVG/1.1/DTD/svg11.dtd">
<!-- Creator: CorelDRAW 2021 (64-Bit) -->
<svg xmlns="http://www.w3.org/2000/svg" xml:space="preserve" width="5.1893mm" height="6.3501mm" version="1.1" style="shape-rendering:geometricPrecision; text-rendering:geometricPrecision; image-rendering:optimizeQuality; fill-rule:evenodd; clip-rule:evenodd"
viewBox="0 0 518.94 635.02"
 xmlns:xlink="http://www.w3.org/1999/xlink"
 xmlns:xodm="http://www.corel.com/coreldraw/odm/2003">
 <defs>
  <style type="text/css">
   <![CDATA[
    .fil0 {fill:white;fill-rule:nonzero}
   ]]>
  </style>
 </defs>
 <g id="Layer_x0020_1">
  <metadata id="CorelCorpID_0Corel-Layer"/>
  <g id="XMLID_228_">
   <path id="XMLID_229_" class="fil0" d="M26.78 233.44c-53.68,93.16 -19.56,234.53 39.81,320.26 29.63,42.85 59.63,81.32 100.72,81.32 0.77,0 1.55,-0.01 2.35,-0.05 19.31,-0.77 33.26,-6.71 46.75,-12.46 15.14,-6.45 30.81,-13.13 55.37,-13.13 23.37,0 38.29,6.46 52.71,12.7 14.22,6.15 28.86,12.51 50.49,12.11 46.29,-0.86 74.71,-42.37 99.78,-78.99 26.16,-38.24 39.29,-75.36 43.72,-89.55l0.18 -0.56c0.84,-2.52 -0.35,-5.27 -2.76,-6.38 -0.07,-0.03 -0.31,-0.13 -0.38,-0.16 -8.15,-3.33 -79.65,-35.05 -80.4,-121.5 -0.7,-70.24 53.64,-107.43 64.53,-114.17l0.51 -0.32c1.18,-0.76 2,-1.97 2.28,-3.34 0.28,-1.38 -0.01,-2.81 -0.8,-3.97 -37.5,-54.88 -94.99,-63.16 -118.13,-64.15 -3.36,-0.34 -6.82,-0.5 -10.31,-0.5 -27.18,0 -53.22,10.27 -74.14,18.51 -14.44,5.69 -26.91,10.61 -35.52,10.61 -9.67,0 -22.21,-4.98 -36.74,-10.74 -19.42,-7.71 -41.44,-16.45 -64.75,-16.45 -0.56,0 -1.1,0.01 -1.64,0.02 -54.2,0.79 -105.4,31.8 -133.63,80.9z"/>
   <path id="XMLID_230_" class="fil0" d="M383.56 0.01c-32.82,1.34 -72.19,21.54 -95.72,49.1 -20,23.17 -39.53,61.79 -34.39,100.72 0.32,2.44 2.3,4.32 4.76,4.51 2.22,0.17 4.48,0.26 6.73,0.26 32.09,0 66.71,-17.75 90.35,-46.34 24.88,-30.18 37.46,-68.92 33.66,-103.62 -0.31,-2.71 -2.7,-4.73 -5.39,-4.63z"/>
  </g>
  <g id="_1956937176640">
  </g>
  <g id="_1956937177216">
  </g>
  <g id="_1956937178032">
  </g>
  <g id="_1956937178320">
  </g>
  <g id="_1956937178800">
  </g>
  <g id="_1956937182064">
  </g>
  <g id="_1956937180912">
  </g>
  <g id="_1956937180816">
  </g>
  <g id="_1956937179904">
  </g>
  <g id="_1956937180720">
  </g>
  <g id="_1956937179856">
  </g>
  <g id="_1956937180624">
  </g>
  <g id="_1956937183168">
  </g>
  <g id="_1956937183504">
  </g>
  <g id="_1956937183696">
  </g>
 </g>
</svg>
