<?xml version="1.0" encoding="UTF-8"?>
<!DOCTYPE svg PUBLIC "-//W3C//DTD SVG 1.1//EN" "http://www.w3.org/Graphics/SVG/1.1/DTD/svg11.dtd">
<!-- Creator: CorelDRAW 2021 (64-Bit) -->
<svg xmlns="http://www.w3.org/2000/svg" xml:space="preserve" width="210.012mm" height="23.4392mm" version="1.1" style="shape-rendering:geometricPrecision; text-rendering:geometricPrecision; image-rendering:optimizeQuality; fill-rule:evenodd; clip-rule:evenodd"
viewBox="0 0 21002.34 2344.05"
 xmlns:xlink="http://www.w3.org/1999/xlink"
 xmlns:xodm="http://www.corel.com/coreldraw/odm/2003">
 <defs>
  <style type="text/css">
   <![CDATA[
    .fil1 {fill:#1A1A1A;fill-rule:nonzero;fill-opacity:0.301961}
    .fil0 {fill:#1A1A1A;fill-rule:nonzero;fill-opacity:0.400000}
   ]]>
  </style>
 </defs>
 <g id="Layer_x0020_1">
  <metadata id="CorelCorpID_0Corel-Layer"/>
  <g id="_2930205749552">
   <path class="fil0" d="M-0 765.67c294.24,2.19 588.47,13.13 882.71,30.63 140.01,7.66 280.02,10.94 418.93,27.34 265.79,32.81 533.78,51.41 799.57,90.79 207.82,30.63 415.65,63.44 623.47,96.26 159.7,25.16 317.21,61.25 475.81,92.98 564.41,113.76 1118.97,262.51 1666.97,437.52 192.51,61.25 382.83,129.07 579.72,178.29 308.46,77.66 620.19,138.92 934.11,187.04 181.57,27.34 363.15,49.22 544.72,71.09 150.95,18.59 304.08,32.81 455.03,32.81 276.74,0 552.37,22.97 829.11,6.56 215.48,-13.13 432.05,-16.41 647.54,-33.91 190.32,-15.31 379.55,-35 567.69,-61.25 177.2,-25.16 354.4,-55.78 530.5,-89.69 438.61,-83.13 869.58,-196.89 1293.98,-332.52 345.65,-110.48 682.54,-243.92 1013.97,-390.49 210.01,-91.89 418.93,-188.14 619.09,-299.71 260.32,-145.48 528.31,-271.27 808.33,-369.71 446.27,-157.51 903.49,-275.65 1373.83,-341.27 262.51,-37.19 731.76,-96.26 914.43,-96.26l525 0.03c107.2,0 503.16,42.66 692.38,64.53 245.01,27.34 488.94,64.53 729.57,114.85 565.5,117.04 1116.78,283.3 1648.37,510.81 340.18,145.48 686.92,270.18 1043.5,365.33 125.79,33.91 250.48,74.38 380.65,92.98l0 1193.35 -20998.98 0.01 0 -1578.38z"/>
   <path class="fil1" d="M-0 1246.95c7.66,-1.09 14.22,-1.09 21.88,-2.19 345.65,-89.69 686.92,-193.6 1018.34,-328.15 76.56,-30.63 150.95,-63.44 226.42,-97.35 194.7,-86.41 386.11,-177.2 585.19,-253.76 340.18,-130.17 685.82,-243.92 1040.22,-330.33 282.21,-68.91 567.69,-125.79 856.46,-162.98 222.04,-27.34 646.45,-72.19 1118.97,-72.19 472.53,0 947.24,85.31 1115.69,107.2 142.2,18.59 282.21,54.69 422.21,86.41 263.6,59.06 521.75,136.73 774.42,229.7 246.1,90.79 488.94,191.42 716.45,323.77 401.43,235.17 811.61,451.75 1239.29,635.51 354.4,152.04 715.35,284.4 1082.87,393.77 306.27,91.89 616.91,168.45 931.93,229.7 194.7,38.28 389.4,75.47 586.28,100.64 125.79,16.41 252.67,25.16 378.46,41.56 188.14,24.06 376.27,30.63 565.5,35 424.4,9.84 847.71,13.13 1271.01,-30.63 111.57,-10.94 224.23,-18.59 335.8,-35 148.76,-21.88 297.52,-47.03 446.27,-71.09 342.36,-55.78 678.17,-134.54 1008.5,-239.54 212.2,-66.72 418.93,-148.76 630.04,-217.67 619.09,-200.17 1245.85,-369.71 1885.74,-490.03 287.68,-53.59 575.34,-101.73 865.21,-141.1 214.39,-28.44 428.77,-52.5 643.17,-72.19 86.41,-7.66 171.73,-15.31 258.14,-20.78 136.73,-9.84 273.46,-16.41 410.18,-22.97 189.23,-8.75 378.46,-17.5 567.69,-12.03l0 1510.55 -21002.34 -0.01 0 -1093.81z"/>
  </g>
 </g>
</svg>
